<svg xmlns="http://www.w3.org/2000/svg" viewBox="0 0 150.08 206.98"><defs><style>.cls-1,.cls-3{fill:#231f20;}.cls-2{fill:#fff;}.cls-3{fill-rule:evenodd;}</style></defs><title>Asset 4</title><g id="Layer_2" data-name="Layer 2"><g id="Layer_1-2" data-name="Layer 1"><path class="cls-1" d="M150.08,75C150.08,116.48,75,207,75,207S0,116.48,0,75a75,75,0,0,1,150.08,0Z"/><circle class="cls-2" cx="75.04" cy="76.58" r="60.5"/><path class="cls-3" d="M46.78,109.78H32.49c-2.28,0-4.15-2.78-4.15-6.15s1.87-6.16,4.15-6.16H43.4l56.82-57.62h14.12c2.28,0,4.16,2.77,4.16,6.15s-1.88,6.16-4.16,6.16H103.75l-53.9,54.66Z"/><path class="cls-1" d="M81.74,98.91c-1.71,1.71-2,4.22-.59,5.61s3.89,1.12,5.6-.59L99.83,90.86c1.71-1.71,2-4.22.59-5.61s-3.9-1.12-5.61.59Z"/><path class="cls-1" d="M101.3,98c0,2.42-1.58,4.38-3.54,4.38s-3.55-2-3.55-4.38V88.74c0-2.41,1.59-4.38,3.55-4.38s3.54,2,3.54,4.38Z"/><path class="cls-1" d="M87.68,91.46c-2.42,0-4.38-1.59-4.38-3.55s2-3.55,4.38-3.55h9.24c2.42,0,4.38,1.59,4.38,3.55s-2,3.55-4.38,3.55Z"/></g></g></svg>