<?xml version="1.0" standalone="no"?>
<!DOCTYPE svg PUBLIC "-//W3C//DTD SVG 20010904//EN"
 "http://www.w3.org/TR/2001/REC-SVG-20010904/DTD/svg10.dtd">
<svg version="1.0" xmlns="http://www.w3.org/2000/svg"
 width="1200.000000pt" height="1200.000000pt" viewBox="0 0 1200.000000 1200.000000"
 preserveAspectRatio="xMidYMid meet">
<metadata>
Created by potrace 1.11, written by Peter Selinger 2001-2013
</metadata>
<g transform="translate(0.000000,1200.000000) scale(0.100000,-0.100000)"
fill="#000000" stroke="none">
<path d="M5904 11690 c-89 -18 -152 -62 -256 -181 -37 -42 -152 -171 -163
-183 -5 -6 -46 -51 -90 -101 -44 -49 -85 -94 -91 -100 -6 -5 -64 -71 -129
-145 -65 -74 -128 -144 -139 -156 -12 -11 -48 -52 -81 -89 -33 -38 -65 -73
-71 -79 -5 -6 -32 -36 -60 -66 -73 -83 -198 -222 -209 -234 -6 -6 -62 -69
-125 -141 -63 -71 -122 -137 -130 -145 -8 -9 -46 -52 -85 -95 -38 -43 -74 -83
-80 -89 -5 -6 -46 -52 -90 -101 -43 -50 -86 -97 -95 -106 -12 -13 -80 -88
-160 -179 -85 -96 -344 -385 -364 -406 -6 -6 -38 -42 -71 -80 -33 -37 -67 -75
-75 -84 -8 -9 -69 -76 -135 -150 -66 -74 -124 -140 -130 -146 -12 -13 -118
-131 -241 -269 -103 -116 -155 -173 -170 -189 -10 -11 -147 -165 -209 -235
-17 -19 -37 -41 -46 -50 -8 -9 -71 -79 -139 -156 -68 -77 -141 -158 -161 -180
-21 -22 -47 -51 -59 -65 -12 -14 -50 -56 -84 -95 -190 -212 -187 -208 -220
-302 -23 -66 -15 -187 17 -256 48 -104 157 -191 273 -215 35 -8 1220 -11 3970
-11 4251 0 3959 -4 4056 53 149 87 218 271 163 436 -19 56 -66 131 -119 188
-18 20 -44 49 -57 64 -34 38 -151 169 -169 188 -8 9 -33 36 -55 61 -146 164
-196 219 -240 269 -51 56 -89 98 -122 136 -15 18 -147 165 -178 198 -6 6 -64
72 -130 146 -66 74 -122 137 -125 140 -3 3 -80 88 -170 190 -91 102 -170 190
-176 195 -6 6 -44 48 -85 95 -41 47 -76 87 -79 90 -3 3 -46 50 -95 105 -49 55
-103 115 -120 134 -16 19 -35 39 -40 45 -6 6 -48 54 -95 106 -46 52 -89 100
-95 106 -15 16 -137 153 -176 197 -19 22 -43 49 -54 61 -11 12 -54 60 -95 106
-41 46 -86 96 -100 111 -14 15 -38 42 -54 60 -16 19 -64 72 -106 119 -42 47
-92 103 -111 124 -19 22 -50 56 -69 77 -19 20 -46 50 -59 66 -42 48 -263 296
-298 333 -18 19 -42 46 -54 60 -11 14 -37 43 -57 65 -21 22 -69 76 -107 120
-39 43 -79 88 -90 100 -11 11 -56 61 -99 110 -44 50 -86 97 -95 105 -9 9 -43
47 -76 85 -114 133 -159 174 -227 204 -71 33 -171 45 -244 31z"/>
<path d="M2028 5375 c-204 -56 -320 -274 -253 -476 23 -67 68 -133 173 -247
48 -53 103 -114 122 -136 19 -22 42 -47 50 -56 8 -8 47 -52 85 -95 39 -44 77
-87 85 -95 8 -8 49 -53 90 -100 41 -47 79 -90 85 -96 5 -6 42 -46 80 -89 39
-43 75 -83 80 -89 6 -6 46 -52 90 -101 44 -50 82 -92 85 -95 3 -3 82 -90 175
-195 93 -104 230 -258 305 -341 74 -83 163 -182 198 -222 35 -39 75 -83 89
-99 14 -15 42 -46 62 -68 20 -22 68 -76 106 -119 39 -44 77 -87 85 -96 8 -9
49 -54 90 -100 118 -132 183 -205 189 -210 3 -3 40 -43 81 -90 41 -47 79 -90
85 -96 5 -6 35 -39 65 -74 30 -34 64 -72 75 -84 11 -12 60 -66 109 -121 49
-55 124 -138 166 -185 42 -47 155 -173 251 -280 151 -170 405 -454 434 -486
11 -11 126 -140 210 -234 197 -220 207 -230 269 -260 121 -60 272 -48 385 31
25 17 92 84 148 148 57 64 115 130 130 146 16 17 62 68 103 115 41 47 78 87
81 90 3 3 65 73 138 155 73 83 150 168 170 190 21 22 113 126 206 230 93 105
172 192 175 195 3 3 61 68 129 145 68 77 135 151 148 165 27 29 84 92 128 141
83 93 212 238 239 269 18 19 92 103 165 185 74 83 141 157 150 166 9 9 29 31
45 50 23 27 148 166 201 225 6 6 39 44 75 84 36 41 72 81 80 90 8 9 51 56 95
106 44 49 82 91 85 94 3 3 37 41 75 85 39 44 73 82 76 85 3 3 64 70 135 150
148 167 180 202 249 278 82 91 89 98 120 133 43 50 287 322 300 335 5 6 37 42
70 79 33 38 73 83 88 99 109 118 184 213 203 258 43 100 40 228 -7 319 -31 62
-112 137 -186 172 l-68 32 -3950 2 c-3216 1 -3959 -1 -3997 -12z m7012 -735
c0 -3 -15 -21 -33 -41 -17 -19 -47 -53 -66 -75 -19 -21 -70 -79 -115 -128 -45
-49 -89 -98 -99 -110 -34 -39 -132 -149 -156 -175 -12 -14 -49 -55 -81 -91
-32 -36 -69 -77 -81 -91 -33 -36 -144 -160 -166 -185 -10 -12 -40 -46 -68 -76
-27 -30 -79 -88 -115 -128 -36 -41 -75 -85 -88 -99 -56 -62 -82 -91 -153 -171
-42 -47 -89 -100 -105 -118 -16 -19 -45 -51 -64 -71 -19 -21 -48 -53 -65 -72
-16 -19 -52 -59 -80 -89 -27 -31 -81 -91 -120 -135 -38 -43 -79 -88 -90 -101
-31 -34 -74 -82 -155 -174 -41 -47 -80 -89 -86 -95 -5 -5 -46 -50 -90 -100
-43 -49 -83 -95 -89 -101 -5 -6 -41 -46 -80 -89 -38 -43 -75 -83 -80 -89 -6
-6 -44 -49 -85 -96 -41 -47 -82 -92 -90 -100 -9 -8 -71 -78 -139 -155 -131
-148 -163 -184 -279 -312 -40 -44 -84 -93 -98 -109 l-25 -29 -19 23 c-15 18
-102 116 -175 196 -6 6 -44 49 -85 96 -41 46 -84 94 -95 106 -11 11 -32 35
-46 51 -35 39 -113 126 -208 232 -42 46 -92 102 -111 124 -19 23 -45 51 -57
64 -12 13 -50 56 -85 95 -35 39 -72 81 -83 94 -29 32 -132 147 -295 329 -247
276 -275 308 -286 319 -14 15 -95 106 -174 195 -36 41 -76 86 -90 101 -45 49
-156 173 -250 280 -51 58 -114 128 -139 155 -26 28 -78 86 -116 130 -39 44
-77 87 -85 95 -9 8 -45 48 -80 89 -36 41 -78 89 -95 106 -16 18 -55 60 -85 95
-30 35 -62 71 -71 79 -8 9 -71 79 -139 156 -69 77 -135 151 -147 164 -12 14
-20 27 -18 30 4 7 6075 8 6075 1z"/>
</g>
</svg>
